<svg width="16" height="16" viewBox="0 0 16 16" fill="none" xmlns="http://www.w3.org/2000/svg">
<path d="M7.82082 1.6967C7.89419 1.54807 8.10614 1.54807 8.1795 1.6967L10.0137 5.41253C10.0428 5.4715 10.099 5.51239 10.1641 5.5219L14.2661 6.12146C14.4301 6.14543 14.4954 6.347 14.3767 6.46263L11.4089 9.35331C11.3617 9.39926 11.3401 9.46548 11.3513 9.53039L12.0516 13.6139C12.0797 13.7773 11.9082 13.9019 11.7614 13.8247L8.09325 11.8957C8.03498 11.865 7.96535 11.865 7.90707 11.8957L4.23889 13.8247C4.09216 13.9019 3.92065 13.7773 3.94868 13.6139L4.64905 9.53039C4.66018 9.46548 4.63865 9.39926 4.59147 9.35331L1.62363 6.46263C1.50491 6.347 1.57027 6.14543 1.73425 6.12146L5.83624 5.5219C5.90131 5.51239 5.95754 5.4715 5.98665 5.41253L7.82082 1.6967Z" stroke="white" stroke-linecap="round" stroke-linejoin="round"/>
</svg>
