<svg width="12" height="12" viewBox="0 0 12 12" fill="none" xmlns="http://www.w3.org/2000/svg">
<path d="M4.6875 11.4375L3.75 9.9375L2.0625 10.5L3.5 7L4.6875 7.73748L6 8L4.6875 11.4375Z" fill="#FFB320"/>
<path d="M7.3125 11.4375L8.25 9.9375L9.9375 10.5L8.5 7L7.5 8H6L7.3125 11.4375Z" fill="#FFB320"/>
<path d="M9.625 4.6875C9.625 6.68953 8.00203 8.3125 6 8.3125C3.99797 8.3125 2.375 6.68953 2.375 4.6875C2.375 2.68547 3.99797 1.0625 6 1.0625C8.00203 1.0625 9.625 2.68547 9.625 4.6875Z" stroke="#FFB320"/>
<path d="M7.6875 6.9375L6 6.1875L4.3125 6.9375L4.5 5.25L3.5625 4.125L5.0625 3.75L6 2.4375L6.9375 3.75L8.4375 4.125L7.5 5.25L7.6875 6.9375Z" fill="#FFB320"/>
</svg>
