<svg width="16" height="16" viewBox="0 0 16 16" fill="none" xmlns="http://www.w3.org/2000/svg">
<g clip-path="url(#clip0_20_65)">
<path d="M8 16C12.4183 16 16 12.4183 16 8C16 3.58172 12.4183 0 8 0C3.58172 0 0 3.58172 0 8C0 12.4183 3.58172 16 8 16Z" fill="#FB6E10"/>
<path d="M2.51219 7.71554L12.2674 4.04492C12.7202 3.8853 13.1156 4.15271 12.9689 4.82085L12.9697 4.82002L11.3087 12.4566C11.1856 12.9981 10.856 13.1297 10.3948 12.8746L7.86533 11.0554L6.6453 12.2024C6.51039 12.334 6.39657 12.4451 6.13519 12.4451L6.31478 9.93304L11.0027 5.8C11.2067 5.62474 10.9572 5.52601 10.6882 5.70044L4.89492 9.25997L2.39752 8.49969C1.85538 8.33183 1.84357 7.97061 2.51219 7.71554Z" fill="white"/>
</g>
<defs>
<clipPath id="clip0_20_65">
<rect width="16" height="16" fill="white"/>
</clipPath>
</defs>
</svg>
